<?xml version="1.0" encoding="utf-8"?>
<!-- Generator: Adobe Illustrator 27.2.0, SVG Export Plug-In . SVG Version: 6.00 Build 0)  -->
<svg version="1.1" xmlns="http://www.w3.org/2000/svg" xmlns:xlink="http://www.w3.org/1999/xlink" x="0px" y="0px"
	 viewBox="0 0 1920 1080" style="enable-background:new 0 0 1920 1080;" xml:space="preserve">
<style type="text/css">
	.st0{fill:#12299B;}
	.st1{fill:#DB1414;}
	.st2{fill:#00B1FF;}
	.st3{fill:#FFDA00;}
	.st4{fill:#00FF67;}
	.mix {
		mix-blend-mode: multiply;
	}
</style>
<g class="mix" id="skin_x28_body_x26_foots_x29_">
	<path id="footL" class="st0" d="M902.5,1021.3l24.2-52.4l7.1-13.6l25.6-13.9l10.9-2.1c0,0,23.7-3.7,23-3.7
		c-0.7,0-22.9-4.3-22.9-4.3l-87.9-8l-79.4-12.3l25.4,22.4l14,18.7l31.5,78.8l0.1,14.1l4.9,4.3l12.4,3l26.2,9.4l19.4-9l-0.1-8.7
		l-34.8-14.5L902.5,1021.3z"/>
	<path id="footR" class="st0" d="M1074.9,977.3l-4.1-0.8l-9.7-2.4l-9.7-2.4l-3.1-0.9l-9.6-2.7l-7.6-4.3l0-3.1l0.1-10l-3.2-7.3
		l27.7,5.1L1074.9,977.3z"/>
	<path id="body" class="st0" d="M563.9,825.2l-0.1,0.1l-3.6,4.6l-8.9,1.9l-5.5-4l-4.8-0.4l-3-4l-4.7-8.8l-4.7-8.8l-4.7-8.8l-1.2-3.6
		l-0.8-3.8l0.1,0.2l-0.1-0.2l-3.3-9.7l-3.3-9.5l-3.3-9.5l-0.7-2.5l-1-3.1l-3.1-8l-1-7.3l-1.3-9.9l-0.6-6.1l-1-10l-0.2-1.3l-1.8-9.8
		l-1.8-9.8l-0.2-4.3l0.8-7.3l1.1-9.9l1.1-9.9l-0.9-7.6l-1.2-9.9l0.1-4.3l0.1-10l0.1-10l0.1-10l0.1-10l0.1-10l0.1-10l0.1-10l0.1-10
		l0.1-10l0.1-10l0.2-8.4l0.2-10l0.2-10l0.2-0.7l3.2-9.5l3.2-9.5l3.2-9.5l1.2-1.9l5.3-8.5l5.3-8.5l5.3-8.5l5.3-8.5l5.3-8.5l5.3-8.5
		l5.3-8.5l0.9-1.3l1.8-3.9l4.2-9.1l4.2-9.1l4.2-9.1l4.2-9.1l1.1-3.2l3.3-9.4l3.3-9.4l3.3-9.4l3.3-9.4l3.3-9.4l3.3-9.4l3.3-9.4
		l5.6-3.5l8.5-5.3l8.5-5.3l8.5-5.3l8.5-5.3l8.5-5.3l8.5-5.3l8.5-5.3l8.5-5.3l8.5-5.3l8.5-5.3l5.7-0.2l10-0.4l10-0.4l10-0.4l10-0.4
		l10-0.4l10-0.4l10-0.4l10-0.4l8-0.3l10-0.4l7.4-2.2l9.6-2.9l9.6-2.8l9.6-2.8l9.6-2.9l9.6-2.8l9.6-2.9l9.6-2.8l9.6-2.8l9.6-2.8
		l9.6-2.9l9.6-2.8l9.6-2.9l1-1.2l5.9-8.1l5.9-8l5.9-8l5.9-8l5.9-8l5.9-8l5.8-7.8l7.6,10.9l-7.5-11.2l-0.2-0.3l-4.7-6l-0.4-1.6
		l-2-6.9l-2.8-9.6l2.3-2.9l6.1-7.9l1.1,0l10-0.4l1.4,0l-3.9,26.7l3.4,15.3h2.3l24.4-64.4l21.7-12.8l32.9-3.4l28.1,2.5l8.4,10.9
		l2.3,30.2l2.9,3.5l-0.5,2.9l-0.6,18.7l1,10l-0.8,0.1l3.5,21.6c0,0,3.2,21.5,3.1,24.1l2.6,9.5l2.6,9.7l2.6,9.7l5.2-0.3l10-0.5
		l10-0.5l1.9-0.1l10-0.6l10-0.6l10-0.6l10-0.6l10-0.6l6.7,3.6l8.8,4.7l3.2,1.5l9,4.3l9,4.3l7.7,5.3l8.2,5.7l8.2,5.7l8.2,5.7l8.2,5.7
		l8.2,5.7l8.2,5.7l8.2,5.7l8.2,5.7l0.9,2.4l3.5,9.4l3.5,9.4l3.5,9.4l3.5,9.4l1,1.8l5,8.7l5,8.7l5,8.7l5.6,8.2l5.6,8.3l5.6,8.3
		l5.6,8.3l5.6,8.3l5.6,8.3l5.6,8.3l5.6,8.3l1.1,4.5l2.3,9.7l2.3,9.7l0,3.1l-0.1,10l-0.1,10l-0.2,5.3l-0.3,10l-0.3,10l-0.3,10
		l-0.3,10l-0.3,10l-0.3,10l-0.3,10l-0.3,10l0.4,2.3l1.7,9.8l-0.7,1.1l-5.4,8.4l1.3,6.1l0.2,1.3l1.5,9.9l1.5,9.9l0.7,3.6l2,9.8
		l1.2,6.3l1.9,9.8l0.4,7.5l0.6,5.5l2.4,18.4l0.3,3.6l0.1,5.1l-3.4,8.5l-3.7,9.3l-3.7,9.3l-2.6,0.2l-5.5,0.5l-5.3-3.8l3.3-23.9
		l-1.5-22.2l1.3,22.2l-3.3,24l5.6,3.8l5.4-0.5l-0.4,0.6l-5.3,10.1l-3.7,1.6l-7.3-0.3l-3.4-3.4l-4.9-0.5l-4.1-5.6l-1.3-1.8l-5.6-0.8
		l-2.6-4.2l-3.4-6.2l1.4-8.6l1.7-9.9l0.6-6.2l0.2-2.2l0.7-9l0.1-0.9l7.1,3.1l6.9,1.5l5.9-4.8l2.9-10.2l0.4-8.7l0.6-5.1l2.1-13.4
		l3.3-7.1l-3.4,7.1l-2.1,13.5l-0.6,5.1l-0.4,8.7l-2.9,10.2l-5.9,4.7l-6.7-1.5l-7.2-3.1l-6.3-3.9l0.1-8.4l-0.3-4.9l-1.2-9.9l0-0.2
		l-0.1-1.1l-1.4-1.3l-2.9-2.7l-1.1-2l-4.9-8.7l-0.5-1.9l-1.3-3.7l0.3-31.9l-8.1-56.6l1.6-8.7l1-59l-13-20.1l-28.8-44l-2.7-6.9
		l-1.5-14.1l1.4,14.1l2.7,6.9l16.4,25.1l25.4,38.9l-1,58.9l-1.6,8.7l8.2,56.7l-0.4,31.9l-0.2,5.6l-0.4,10l-0.4,10l0,0.7l-0.7,10
		l-0.7,10l-0.7,10l-0.7,10l-0.7,10l-0.7,10l-0.7,10l-2.5,10l-2.4,9.7l-2.4,9.7l-4,6.7l-5.2,8.6l-5.2,8.6l-13.4,22.3l-30,14.3
		l-28.2,22.4l-99.8,30.4l-104.1,15.4l-113.2-6.9l-128.6-22.2l-78.1-35l-4.4-5.7l-6.1-7.9l-6.1-7.9l-6.1-7.9l-0.9-1.3l-5.2-7.3
		l-5.8-8.2l-5.8-8.2l-5.8-8.2l-5.8-8.2l-2.7-9l-2.8-9.6l-2.8-9.6l-2.8-9.6l-2.8-9.6l-2.8-9.6l-2.8-9.6l-2.8-9.6l-0.7-10.1l-0.7-10
		l-0.7-10l-0.7-10l-0.7-10l-0.7-10l-0.7-10l-0.7-10l0.6-4l1.5-9.9l1.5-9.9l1.3-8.9l3.5-10.3l12.1-19.2l21.8-20.7l20.5-19.6
		l24.9-16.6l-25.1,16.5l-20.6,19.6l-21.7,20.7l-12.2,19.2l-3.5,10.2l-1.7,5l-3.2,9.5l-3.2,9.5l-3.2,9.5l-3.2,9.5l-3.2,9.5l-3.2,9.5
		l-3.2,9.5l-3.2,9.5L577,636l-3.2,9.5l-3.2,9.5l-0.2,6.1l1.1,4.4l2.1,9.7l2.1,9.8l6.2,5.7l7.4,6.7l2.8,4.5l2.5,4.1l0.3,0.4l5.8,8.2
		l5.8,8.2l2,2.7l2.1,2.6l1.3,1.5l6.6,7.5l3.1,7.6l-0.9,6.8l-6.7,5.8l-7.1,2.9l-9.7,0.4l-5.4-4.5l-1.6-1.7l-6.8-7.3l-2.3-2.6
		l-8.9-10.9l-7-10.6l6.9,10.7l-2.9,3.2l-4,5.6l-1.6,6.2l-0.4,2.4l0,1.9l0,0.9l1.9,9.5l2.2,8.6l2.2,4.9l4.8,8.8l4.8,8.8l4.6,8.3
		l-0.9,6.6l-5.2,5.1l-5.7,0.9l-6.1,0.5l-14.5-15.6l-10.2-11.4L531,762l9.7,26.9l10.3,11.5l14.5,15.5l2.2,4.1l-2.1,3.1L563.9,825.2"
		/>
</g>
<g class="mix" id="belt">
	<path id="belt_00000134955402622199019210000016770614409916568763_" class="st1" d="M659.6,774.7l-4.7,8l5.8,8.2l5.8,8.2l5.8,8.2
		l5.8,8.2l5.8,8.2l5.8,8.2l5.8,8.2l5.8,8.2l5.8,8.2l0.9,1.3l7,7.1l7,7.1l7,7.1l2.8,2.9l9.1,4.2l9.1,4.2l9.1,4.2l9.1,4.2l9.1,4.2
		l9.1,4.2l5.3,2.4l9.9,1.5l0.6,0.1l9.9,1.5l9.9,1.5l9.9,1.5l9.9,1.5l9.9,1.5l9.9,1.5l9.9,1.5l9.9,1.6l10,1l10,1l10,1l10,1l10,1l10,1
		l10,1l10,1l9.3,0.9l9.8,1.9l9.8,1.9l3.1,0.6l9.8,1.9l9.8,1.9l9.8,1.9l5.9,1.2l9.8,1.9l9.8,1.9l7.9,1.6l3.3,5.1l5.5,8.4l0.1,0.2
		l0.6,0.9l5.5,8.4l4.5,5.6l28.7,44.4l8.6,3.7l4.7,2l11.6-0.7l9.9-1.4l9.9-1.4l5.5-0.8l9.5-3.1l9.5-3.1l9.5-3.1l2.3-0.8l6.7-7.4
		l6.7-7.4l0.4-0.5l2.7-9.6l2-7.4l1.6-9.9l1.6-9.9l1.6-9.9l1.6-9.9l1.6-9.9l1.6-9.9l1.6-9.9l1.6-9.9l1.6-9.9l1.6-9.9l1.4-7.7
		l54.9-81.2l3.3-27.5l-12.3,20.7l-30.3,14.1l-29.2,23.2l-100.2,31L1001,869.6l-111.7-6.8l-126-21.7l-80.1-35.7L659.6,774.7z"/>
</g>
<g class="mix" id="mouth">
	<path id="mouth_00000174587401478565818920000006039911202277443773_" class="st2" d="M1087.6,230.9l-2.6-11.2l-3.8-0.6l-7.2,0.6
		l-0.3,0l-9.7,0.7l-2.3,0.1l-7.2,0.4l-3.1,0.1l-11.1,0.1l-3.4,0.1l-10.1,0.3l-10,0l-5.2,0l-1.5,0.8l-0.7,0.8l-8.5,10.7l8.6-10.7
		l1.1,0l10.3-0.1l10,0l10,0l10.3,0l10-0.7l10-0.7l3.3-0.2l0.4,0l6.7-0.5l3.4-0.2L1087.6,230.9z"/>
</g>
<g class="mix" id="eyes_00000000908840962856979750000005480234256977283753_">
	<path id="eyeL" class="st3" d="M1022,151.2l7.9-0.5c0,0,0.1,0,1.5,3.2l1.6,9.6l-0.2,9.5l-1.1,3l-3.2,3.2l-4.9-4.3l-2.4-11.6l0.7-10
		L1022,151.2z"/>
	<polyline id="eyeR" class="st3" points="1067.8,166.3 1067.5,172 1067.3,173.8 1063.3,178.2 1061.4,175.1 1060.5,172.2 
		1059.3,162.8 1059.6,153.2 1060,149.9 1065.4,150 1066.2,151.2 1067.9,158.4 1067.8,166.3 	"/>
</g>
<g class="mix" id="eyebrows_00000042716337068601332060000015897359053917248910_">
	<path id="eyebrowsL" class="st4" d="M998.9,133.3h-2.2l-0.1,0.9l0,0l-0.1,0.7l-1.2,9.9l-0.9,7.2l10,0l1.2,0l10-0.5l1.9-0.1l5.1-0.3
		l3.1-0.2l3.1-0.2l1.6-0.1l5.2-0.2l5.1-0.3l0,0l-0.3-8.9l-1.3-0.2l-6.6-1l-31.1-6.2L998.9,133.3z"/>
	<path id="eyebrowsR" class="st4" d="M1082.1,131.5l-8.3,4.3l-9.9,2.9l-11.2,2.3l-0.3,8.9l6.1,0.1l1.8,0l24.9,0.2l0.4,0l3.2-0.2
		l-0.7-10l-0.6-8.5l-1.3,0l-1.9,0l0,0l-0.4,0L1082.1,131.5"/>
</g>
<g id="hair" class="mix">
	<path id="hair_00000166673129229607227040000009824771181147211397_" d="M968.5,73.7l-1.4,3.2l-1.2,9.9l-1.2,9.9l-1.2,9.9l-1,8.3
		l0.5,5.2l0.2,2.1l0,0.2l-0.2,1.2l-1.5,9.9l-1.5,9.9l-0.2,1.6l-0.4,2.8l0,0.1l1.3,4.7l1.2,4.5l1.6,6l4.4,0.4l10.3-32.2l14.9-33.5
		l20.6-11.8l4.9,1.4l9.7-0.7l2-0.3l9.9-1.3l7.9-1.1l9.9,1.5l10.6,0.7l4.1-1.3l0,0l7.9,10c0,0,1,9.6,1,9.9l1,9.9l1,9.9l0.1,1.1l0-0.9
		l0.4-10l0.4-10l0.4-10l0.1-2.8l-5.2-8.5l-4.7-7.7l-7.7-6.4l-7.7-6.4L1052,57l-0.5-0.4l-9.4-3.5l-9.4-3.5l-6.6-2.4l-9.7,2.6
		l-7.8,2.1l0.4-0.9l0.7-8.4L1007,33l-1.7-5.5l-3.5-8.1l-9.1-4.1l-6.4-2.9l-5.6,2.5l-9,4.3l-0.7,0.4l-5.9,2.7l-3.1,9.5l-1.8,5.5
		l-2.2,9.8l-1.4,6.2l3.3,9.5l0.7,2l6,8l0.3,0.4L968.5,73.7z"/>
</g>
<g id="Png_x5F_parts">
</g>
</svg>
